<?xml version="1.0" encoding="UTF-8"?>
<svg xmlns="http://www.w3.org/2000/svg" xmlns:xlink="http://www.w3.org/1999/xlink" width="384pt" height="384pt" viewBox="0 0 384 384" version="1.1">
<g id="surface1">
<path style="fill:none;stroke-width:40;stroke-linecap:round;stroke-linejoin:miter;stroke:rgb(0%,0%,0%);stroke-opacity:1;stroke-miterlimit:10;" d="M 160 164 C 160 164 161.4375 131 193.541667 104.541667 C 212.598958 88.828125 235.489583 84.28125 256 84 C 274.729167 83.770833 291.46875 86.9375 301.479167 91.817708 C 318.588542 100.197917 352 120.598958 352 164 C 352 209.671875 322.817708 230.369792 289.651042 253.182292 C 256.479167 275.989583 248 298.359375 248 324 " transform="matrix(0.75,0,0,0.75,0,0)"/>
<path style=" stroke:none;fill-rule:nonzero;fill:rgb(0%,0%,0%);fill-opacity:1;" d="M 210 299.992188 C 210 313.246094 199.253906 323.992188 186 323.992188 C 172.746094 323.992188 162 313.246094 162 299.992188 C 162 286.738281 172.746094 275.992188 186 275.992188 C 199.253906 275.992188 210 286.738281 210 299.992188 Z M 210 299.992188 "/>
</g>
</svg>
